<svg width="23" height="22" viewBox="0 0 23 22" fill="none" xmlns="http://www.w3.org/2000/svg">
<path d="M16.0431 8.32581H21.984C22.5454 8.32581 23.0003 8.78086 23.0003 9.34212V14.7535C23.0003 16.8163 21.3281 18.4887 19.2653 18.4887H19.2476C17.1848 18.4889 15.5122 16.8169 15.512 14.754V8.85705C15.5119 8.78728 15.5256 8.71819 15.5523 8.65373C15.579 8.58927 15.6181 8.53069 15.6674 8.48136C15.7168 8.43202 15.7753 8.39289 15.8398 8.3662C15.9043 8.33951 15.9734 8.32578 16.0431 8.32581Z" fill="#5A62C3"/>
<path d="M20.0584 7.2559C21.3877 7.2559 22.4654 6.17825 22.4654 4.8489C22.4654 3.51955 21.3877 2.44189 20.0584 2.44189C18.729 2.44189 17.6514 3.51955 17.6514 4.8489C17.6514 6.17825 18.729 7.2559 20.0584 7.2559Z" fill="#5A62C3"/>
<path d="M12.5697 7.25542C14.4898 7.25542 16.0464 5.69882 16.0464 3.77865C16.0464 1.85848 14.4898 0.30188 12.5697 0.30188C10.6495 0.30188 9.0929 1.85848 9.0929 3.77865C9.0929 5.69882 10.6495 7.25542 12.5697 7.25542Z" fill="#7B83EB"/>
<path d="M17.2056 8.32581H7.39909C6.84449 8.33955 6.40578 8.79982 6.41863 9.35443V15.5264C6.34118 18.8546 8.97423 21.6165 12.3023 21.698C15.6304 21.6165 18.2634 18.8546 18.1861 15.5264V9.35443C18.1989 8.79982 17.7602 8.33955 17.2056 8.32581Z" fill="#7B83EB"/>
<path opacity="0.1" d="M12.8372 8.32581V16.9749C12.8359 17.1689 12.7773 17.3582 12.6689 17.519C12.5604 17.6798 12.4068 17.805 12.2274 17.8789C12.1106 17.9283 11.9851 17.9537 11.8583 17.9537H6.88918C6.81964 17.7772 6.75549 17.6006 6.70195 17.4189C6.5147 16.8051 6.41919 16.167 6.41849 15.5253V9.35281C6.40564 8.7991 6.84363 8.33955 7.39734 8.3259L12.8372 8.32581Z" fill="#01274E"/>
<path opacity="0.2" d="M12.3025 8.32581V17.5098C12.3025 17.6366 12.2771 17.7621 12.2277 17.8789C12.1538 18.0583 12.0286 18.2118 11.8678 18.3203C11.7069 18.4288 11.5177 18.4874 11.3237 18.4887H7.14099C7.05007 18.3121 6.96445 18.1356 6.88961 17.9537C6.8177 17.7789 6.7552 17.6004 6.70237 17.4189C6.51513 16.8051 6.41961 16.167 6.41892 15.5253V9.35281C6.40607 8.7991 6.84406 8.33955 7.39776 8.3259L12.3025 8.32581Z" fill="#01274E"/>
<path opacity="0.2" d="M12.3026 8.32581V16.44C12.2986 16.9789 11.8627 17.4148 11.3238 17.4189H6.70237C6.51513 16.8051 6.41961 16.167 6.41892 15.5253V9.35281C6.40607 8.7991 6.84406 8.33955 7.39776 8.3259L12.3026 8.32581Z" fill="#01274E"/>
<path opacity="0.2" d="M11.7678 8.32581V16.44C11.7636 16.9789 11.3278 17.4148 10.7889 17.4189H6.70237C6.51513 16.8051 6.41961 16.167 6.41892 15.5253V9.35281C6.40607 8.7991 6.84406 8.33955 7.39776 8.3259L11.7678 8.32581Z" fill="#01274E"/>
<path opacity="0.1" d="M12.8373 5.56015V7.24498C12.7463 7.25038 12.6607 7.25577 12.5698 7.25577C12.4789 7.25577 12.3932 7.25038 12.3023 7.24498C12.1218 7.233 11.9428 7.20437 11.7675 7.15945C11.2335 7.03299 10.737 6.78193 10.3187 6.4268C9.90034 6.07168 9.57199 5.62258 9.36048 5.11623C9.28663 4.94374 9.22933 4.76462 9.18933 4.5813H11.8584C12.3981 4.58337 12.8352 5.02036 12.8373 5.56015Z" fill="#01274E"/>
<path opacity="0.2" d="M12.3025 6.09454V7.24454C12.122 7.23256 11.9429 7.20393 11.7677 7.15901C11.2337 7.03253 10.7373 6.78146 10.3189 6.42634C9.90059 6.07122 9.57225 5.62213 9.36075 5.11578H11.3237C11.8634 5.11776 12.3004 5.55485 12.3025 6.09454Z" fill="#01274E"/>
<path opacity="0.2" d="M12.3025 6.09454V7.24454C12.122 7.23256 11.9429 7.20393 11.7677 7.15901C11.2337 7.03253 10.7373 6.78146 10.3189 6.42634C9.90059 6.07122 9.57225 5.62213 9.36075 5.11578H11.3237C11.8634 5.11776 12.3004 5.55485 12.3025 6.09454Z" fill="#01274E"/>
<path opacity="0.2" d="M11.7678 6.09463V7.1591C11.2338 7.03262 10.7373 6.78155 10.3189 6.42641C9.90059 6.07127 9.57224 5.62215 9.36075 5.11578H10.7889C11.3287 5.11785 11.7657 5.55494 11.7678 6.09463Z" fill="#01274E"/>
<path d="M0.980464 5.11587H10.7869C11.3285 5.11587 11.7675 5.55485 11.7675 6.09634V15.9029C11.7675 16.4444 11.3285 16.8833 10.787 16.8833H0.980464C0.438976 16.8833 0 16.4444 0 15.9029V6.09643C0 5.55476 0.438976 5.11587 0.980464 5.11587Z" fill="url(#paint0_linear_1_387)"/>
<path d="M8.46439 8.84853H6.50401V14.1867H5.25509V8.84853H3.30386V7.81299H8.46439V8.84853Z" fill="white"/>
<defs>
<linearGradient id="paint0_linear_1_387" x1="204.424" y1="-71.4909" x2="972.33" y2="1258.47" gradientUnits="userSpaceOnUse">
<stop stop-color="#5A62C3"/>
<stop offset="0.5" stop-color="#4D55BD"/>
<stop offset="1" stop-color="#3940AB"/>
</linearGradient>
</defs>
</svg>
