<svg width="14" height="18" viewBox="0 0 14 18" fill="none" xmlns="http://www.w3.org/2000/svg">
<path d="M1 3.91468C1 2.8945 1 2.38441 1.20762 1.99455C1.39023 1.65178 1.68161 1.3731 2.04 1.19845C2.44762 0.999878 2.98095 0.999878 4.04762 0.999878H9.38095C10.4476 0.999878 10.981 0.999878 11.3886 1.19845C11.747 1.3731 12.0383 1.65178 12.221 1.99455C12.4286 2.38441 12.4286 2.8945 12.4286 3.91468V16.0339C12.4286 16.4766 12.4286 16.6979 12.3324 16.8191C12.2908 16.8717 12.2378 16.9152 12.1769 16.9463C12.1161 16.9774 12.0489 16.9956 11.98 16.9994C11.821 17.0085 11.6286 16.8855 11.2438 16.6405L6.71429 13.7521L2.18476 16.6396C1.8 16.8855 1.60762 17.0085 1.44762 16.9994C1.37889 16.9954 1.31188 16.9773 1.25121 16.9461C1.19054 16.915 1.13765 16.8716 1.09619 16.8191C1 16.6979 1 16.4766 1 16.0339V3.91468Z" stroke="#AAAAAA" stroke-width="1.5" stroke-linecap="round" stroke-linejoin="round"/>
</svg>
